<mxfile host="app.diagrams.net" modified="2023-05-15T23:10:45.063Z" agent="Mozilla/5.0 (X11; Ubuntu; Linux x86_64; rv:109.0) Gecko/20100101 Firefox/113.0" etag="82oWaxcQe2-XjTDOn5rh" version="21.2.9" type="device">
  <diagram id="eTZaB0LM0tfJcAhFKt2J" name="PÃ¡gina-1">
    <mxGraphModel dx="568" dy="304" grid="1" gridSize="10" guides="1" tooltips="1" connect="1" arrows="1" fold="1" page="1" pageScale="1" pageWidth="827" pageHeight="1169" math="0" shadow="0">
      <root>
        <mxCell id="0" />
        <mxCell id="1" parent="0" />
        <mxCell id="V9wkc1grLBFZfjwfMomi-39" value="" style="rounded=1;whiteSpace=wrap;html=1;fontSize=10;" parent="1" vertex="1">
          <mxGeometry x="110" width="1500" height="800" as="geometry" />
        </mxCell>
        <mxCell id="87vMEDEc18548d9_qdaI-85" value="" style="endArrow=classic;html=1;rounded=0;edgeStyle=orthogonalEdgeStyle;entryX=0;entryY=0.5;entryDx=0;entryDy=0;entryPerimeter=0;exitX=0.463;exitY=0.137;exitDx=0;exitDy=0;exitPerimeter=0;" parent="1" source="RXV--8zWElb7cY1QM_az-34" target="87vMEDEc18548d9_qdaI-79" edge="1">
          <mxGeometry width="50" height="50" relative="1" as="geometry">
            <mxPoint x="1330" y="580" as="sourcePoint" />
            <mxPoint x="1210" y="350" as="targetPoint" />
            <Array as="points">
              <mxPoint x="1470" y="546" />
              <mxPoint x="1470" y="520" />
              <mxPoint x="1460" y="520" />
              <mxPoint x="1460" y="371" />
            </Array>
          </mxGeometry>
        </mxCell>
        <mxCell id="87vMEDEc18548d9_qdaI-2" value="&lt;div&gt;Client&lt;/div&gt;&lt;div&gt;&lt;br&gt;&lt;/div&gt;" style="shape=umlActor;verticalLabelPosition=bottom;verticalAlign=top;html=1;" parent="1" vertex="1">
          <mxGeometry x="40" y="320" width="30" height="60" as="geometry" />
        </mxCell>
        <mxCell id="87vMEDEc18548d9_qdaI-3" value="Endpoint" style="shape=umlBoundary;whiteSpace=wrap;html=1;" parent="1" vertex="1">
          <mxGeometry x="150" y="310" width="100" height="80" as="geometry" />
        </mxCell>
        <mxCell id="87vMEDEc18548d9_qdaI-4" value="" style="endArrow=classic;html=1;rounded=0;startArrow=classic;startFill=1;" parent="1" source="87vMEDEc18548d9_qdaI-2" edge="1">
          <mxGeometry width="50" height="50" relative="1" as="geometry">
            <mxPoint x="240" y="500" as="sourcePoint" />
            <mxPoint x="140" y="350" as="targetPoint" />
          </mxGeometry>
        </mxCell>
        <mxCell id="87vMEDEc18548d9_qdaI-6" value="weathers" style="strokeWidth=2;html=1;shape=mxgraph.flowchart.direct_data;whiteSpace=wrap;rotation=-45;fontSize=10;fontStyle=0" parent="1" vertex="1">
          <mxGeometry x="450" y="220" width="70" height="30" as="geometry" />
        </mxCell>
        <mxCell id="87vMEDEc18548d9_qdaI-8" value="Weathers" style="ellipse;shape=umlControl;whiteSpace=wrap;html=1;" parent="1" vertex="1">
          <mxGeometry x="540" y="140" width="70" height="80" as="geometry" />
        </mxCell>
        <mxCell id="87vMEDEc18548d9_qdaI-9" value="Control Object" style="ellipse;shape=umlControl;whiteSpace=wrap;html=1;" parent="1" vertex="1">
          <mxGeometry x="1020" y="120" width="70" height="80" as="geometry" />
        </mxCell>
        <mxCell id="87vMEDEc18548d9_qdaI-10" value="Control Object" style="ellipse;shape=umlControl;whiteSpace=wrap;html=1;" parent="1" vertex="1">
          <mxGeometry x="1010" y="130" width="70" height="80" as="geometry" />
        </mxCell>
        <mxCell id="87vMEDEc18548d9_qdaI-11" value="Duration mean per Start_Date" style="ellipse;shape=umlControl;whiteSpace=wrap;html=1;" parent="1" vertex="1">
          <mxGeometry x="1000" y="140" width="70" height="80" as="geometry" />
        </mxCell>
        <mxCell id="87vMEDEc18548d9_qdaI-14" value="Trips" style="ellipse;shape=umlControl;whiteSpace=wrap;html=1;" parent="1" vertex="1">
          <mxGeometry x="540" y="310" width="70" height="80" as="geometry" />
        </mxCell>
        <mxCell id="87vMEDEc18548d9_qdaI-15" value="Control Object" style="ellipse;shape=umlControl;whiteSpace=wrap;html=1;" parent="1" vertex="1">
          <mxGeometry x="760" y="380" width="70" height="80" as="geometry" />
        </mxCell>
        <mxCell id="87vMEDEc18548d9_qdaI-16" value="Control Object" style="ellipse;shape=umlControl;whiteSpace=wrap;html=1;" parent="1" vertex="1">
          <mxGeometry x="750" y="390" width="70" height="80" as="geometry" />
        </mxCell>
        <mxCell id="87vMEDEc18548d9_qdaI-17" value="Montreal Trips" style="ellipse;shape=umlControl;whiteSpace=wrap;html=1;" parent="1" vertex="1">
          <mxGeometry x="740" y="400" width="70" height="80" as="geometry" />
        </mxCell>
        <mxCell id="87vMEDEc18548d9_qdaI-20" value="Stations" style="ellipse;shape=umlControl;whiteSpace=wrap;html=1;" parent="1" vertex="1">
          <mxGeometry x="540" y="470" width="70" height="80" as="geometry" />
        </mxCell>
        <mxCell id="87vMEDEc18548d9_qdaI-21" value="Control Object" style="ellipse;shape=umlControl;whiteSpace=wrap;html=1;" parent="1" vertex="1">
          <mxGeometry x="790" y="520" width="70" height="80" as="geometry" />
        </mxCell>
        <mxCell id="87vMEDEc18548d9_qdaI-22" value="Control Object" style="ellipse;shape=umlControl;whiteSpace=wrap;html=1;" parent="1" vertex="1">
          <mxGeometry x="780" y="530" width="70" height="80" as="geometry" />
        </mxCell>
        <mxCell id="87vMEDEc18548d9_qdaI-23" value="Montreal Stations" style="ellipse;shape=umlControl;whiteSpace=wrap;html=1;" parent="1" vertex="1">
          <mxGeometry x="770" y="540" width="70" height="80" as="geometry" />
        </mxCell>
        <mxCell id="87vMEDEc18548d9_qdaI-24" value="trips" style="strokeWidth=2;html=1;shape=mxgraph.flowchart.direct_data;whiteSpace=wrap;rotation=0;fontSize=10;fontStyle=0" parent="1" vertex="1">
          <mxGeometry x="450" y="335" width="70" height="30" as="geometry" />
        </mxCell>
        <mxCell id="87vMEDEc18548d9_qdaI-25" value="stations" style="strokeWidth=2;html=1;shape=mxgraph.flowchart.direct_data;whiteSpace=wrap;rotation=45;fontSize=10;fontStyle=0" parent="1" vertex="1">
          <mxGeometry x="450" y="440" width="70" height="30" as="geometry" />
        </mxCell>
        <mxCell id="87vMEDEc18548d9_qdaI-26" value="&lt;div style=&quot;font-size: 10px;&quot;&gt;start end code&lt;/div&gt;" style="strokeWidth=2;html=1;shape=mxgraph.flowchart.direct_data;whiteSpace=wrap;rotation=20;fontSize=10;fontStyle=0" parent="1" vertex="1">
          <mxGeometry x="640" y="400" width="70" height="30" as="geometry" />
        </mxCell>
        <mxCell id="87vMEDEc18548d9_qdaI-27" value="coordinates" style="strokeWidth=2;html=1;shape=mxgraph.flowchart.direct_data;whiteSpace=wrap;rotation=15;fontSize=10;fontStyle=0" parent="1" vertex="1">
          <mxGeometry x="660" y="535" width="70" height="30" as="geometry" />
        </mxCell>
        <mxCell id="87vMEDEc18548d9_qdaI-28" value="&lt;font style=&quot;font-size: 10px;&quot;&gt;precipitations&lt;/font&gt;" style="strokeWidth=2;html=1;shape=mxgraph.flowchart.direct_data;whiteSpace=wrap;rotation=0;" parent="1" vertex="1">
          <mxGeometry x="660" y="165" width="70" height="30" as="geometry" />
        </mxCell>
        <mxCell id="87vMEDEc18548d9_qdaI-32" value="Control Object" style="ellipse;shape=umlControl;whiteSpace=wrap;html=1;" parent="1" vertex="1">
          <mxGeometry x="1250" y="510" width="70" height="80" as="geometry" />
        </mxCell>
        <mxCell id="87vMEDEc18548d9_qdaI-33" value="Control Object" style="ellipse;shape=umlControl;whiteSpace=wrap;html=1;" parent="1" vertex="1">
          <mxGeometry x="1240" y="520" width="70" height="80" as="geometry" />
        </mxCell>
        <mxCell id="87vMEDEc18548d9_qdaI-34" value="Distance mean per Station" style="ellipse;shape=umlControl;whiteSpace=wrap;html=1;" parent="1" vertex="1">
          <mxGeometry x="1230" y="530" width="70" height="80" as="geometry" />
        </mxCell>
        <mxCell id="87vMEDEc18548d9_qdaI-35" value="montreal coordinates" style="strokeWidth=2;html=1;shape=mxgraph.flowchart.direct_data;whiteSpace=wrap;rotation=0;fontSize=10;fontStyle=0" parent="1" vertex="1">
          <mxGeometry x="900" y="565" width="70" height="30" as="geometry" />
        </mxCell>
        <mxCell id="87vMEDEc18548d9_qdaI-48" value="Trips Count per Stations" style="ellipse;shape=umlControl;whiteSpace=wrap;html=1;" parent="1" vertex="1">
          <mxGeometry x="1010" y="320" width="70" height="80" as="geometry" />
        </mxCell>
        <mxCell id="87vMEDEc18548d9_qdaI-49" value="start trip code" style="strokeWidth=2;html=1;shape=mxgraph.flowchart.direct_data;whiteSpace=wrap;rotation=15;fontSize=10;" parent="1" vertex="1">
          <mxGeometry x="890" y="315" width="70" height="30" as="geometry" />
        </mxCell>
        <mxCell id="87vMEDEc18548d9_qdaI-56" value="" style="endArrow=classic;html=1;rounded=0;entryX=0;entryY=0.5;entryDx=0;entryDy=0;entryPerimeter=0;" parent="1" target="87vMEDEc18548d9_qdaI-24" edge="1">
          <mxGeometry width="50" height="50" relative="1" as="geometry">
            <mxPoint x="400" y="350" as="sourcePoint" />
            <mxPoint x="310" y="380" as="targetPoint" />
            <Array as="points">
              <mxPoint x="420" y="350" />
            </Array>
          </mxGeometry>
        </mxCell>
        <mxCell id="87vMEDEc18548d9_qdaI-57" value="" style="endArrow=classic;html=1;rounded=0;" parent="1" edge="1">
          <mxGeometry width="50" height="50" relative="1" as="geometry">
            <mxPoint x="400" y="320" as="sourcePoint" />
            <mxPoint x="460" y="260" as="targetPoint" />
          </mxGeometry>
        </mxCell>
        <mxCell id="87vMEDEc18548d9_qdaI-58" value="" style="endArrow=classic;html=1;rounded=0;" parent="1" edge="1">
          <mxGeometry width="50" height="50" relative="1" as="geometry">
            <mxPoint x="400" y="370" as="sourcePoint" />
            <mxPoint x="460" y="430" as="targetPoint" />
          </mxGeometry>
        </mxCell>
        <mxCell id="87vMEDEc18548d9_qdaI-60" value="" style="endArrow=classic;html=1;rounded=0;" parent="1" edge="1">
          <mxGeometry width="50" height="50" relative="1" as="geometry">
            <mxPoint x="510" y="480" as="sourcePoint" />
            <mxPoint x="540" y="510" as="targetPoint" />
          </mxGeometry>
        </mxCell>
        <mxCell id="87vMEDEc18548d9_qdaI-62" value="" style="endArrow=classic;html=1;rounded=0;entryX=0;entryY=0.5;entryDx=0;entryDy=0;entryPerimeter=0;" parent="1" target="87vMEDEc18548d9_qdaI-8" edge="1">
          <mxGeometry width="50" height="50" relative="1" as="geometry">
            <mxPoint x="510" y="210" as="sourcePoint" />
            <mxPoint x="550" y="520" as="targetPoint" />
          </mxGeometry>
        </mxCell>
        <mxCell id="87vMEDEc18548d9_qdaI-64" value="" style="endArrow=classic;html=1;rounded=0;entryX=0;entryY=0.5;entryDx=0;entryDy=0;entryPerimeter=0;" parent="1" target="87vMEDEc18548d9_qdaI-14" edge="1">
          <mxGeometry width="50" height="50" relative="1" as="geometry">
            <mxPoint x="520" y="350" as="sourcePoint" />
            <mxPoint x="460" y="360" as="targetPoint" />
          </mxGeometry>
        </mxCell>
        <mxCell id="87vMEDEc18548d9_qdaI-65" value="" style="endArrow=classic;html=1;rounded=0;" parent="1" edge="1">
          <mxGeometry width="50" height="50" relative="1" as="geometry">
            <mxPoint x="600" y="380" as="sourcePoint" />
            <mxPoint x="640" y="400" as="targetPoint" />
          </mxGeometry>
        </mxCell>
        <mxCell id="87vMEDEc18548d9_qdaI-66" value="" style="endArrow=classic;html=1;rounded=0;exitX=1;exitY=0.5;exitDx=0;exitDy=0;exitPerimeter=0;entryX=0;entryY=0.498;entryDx=0;entryDy=0;entryPerimeter=0;" parent="1" source="87vMEDEc18548d9_qdaI-26" target="87vMEDEc18548d9_qdaI-17" edge="1">
          <mxGeometry width="50" height="50" relative="1" as="geometry">
            <mxPoint x="730" y="354.67" as="sourcePoint" />
            <mxPoint x="740" y="435" as="targetPoint" />
          </mxGeometry>
        </mxCell>
        <mxCell id="87vMEDEc18548d9_qdaI-67" value="" style="endArrow=classic;html=1;rounded=0;" parent="1" edge="1">
          <mxGeometry width="50" height="50" relative="1" as="geometry">
            <mxPoint x="610" y="519.6700000000001" as="sourcePoint" />
            <mxPoint x="660" y="540" as="targetPoint" />
          </mxGeometry>
        </mxCell>
        <mxCell id="87vMEDEc18548d9_qdaI-68" value="" style="endArrow=classic;html=1;rounded=0;exitX=1;exitY=0.5;exitDx=0;exitDy=0;exitPerimeter=0;entryX=0;entryY=0.375;entryDx=0;entryDy=0;entryPerimeter=0;" parent="1" source="87vMEDEc18548d9_qdaI-27" target="87vMEDEc18548d9_qdaI-23" edge="1">
          <mxGeometry width="50" height="50" relative="1" as="geometry">
            <mxPoint x="730" y="519.6700000000001" as="sourcePoint" />
            <mxPoint x="760" y="580" as="targetPoint" />
          </mxGeometry>
        </mxCell>
        <mxCell id="87vMEDEc18548d9_qdaI-69" value="" style="endArrow=classic;html=1;rounded=0;entryX=0;entryY=0.5;entryDx=0;entryDy=0;entryPerimeter=0;" parent="1" edge="1">
          <mxGeometry width="50" height="50" relative="1" as="geometry">
            <mxPoint x="610" y="179.67000000000002" as="sourcePoint" />
            <mxPoint x="660" y="179.67000000000002" as="targetPoint" />
          </mxGeometry>
        </mxCell>
        <mxCell id="87vMEDEc18548d9_qdaI-70" value="" style="endArrow=classic;html=1;rounded=0;" parent="1" edge="1">
          <mxGeometry width="50" height="50" relative="1" as="geometry">
            <mxPoint x="730" y="179.67000000000002" as="sourcePoint" />
            <mxPoint x="770" y="180" as="targetPoint" />
          </mxGeometry>
        </mxCell>
        <mxCell id="87vMEDEc18548d9_qdaI-71" value="" style="endArrow=classic;html=1;rounded=0;exitX=1.043;exitY=0.725;exitDx=0;exitDy=0;exitPerimeter=0;" parent="1" source="V9wkc1grLBFZfjwfMomi-12" edge="1">
          <mxGeometry width="50" height="50" relative="1" as="geometry">
            <mxPoint x="890" y="349.67" as="sourcePoint" />
            <mxPoint x="890" y="320" as="targetPoint" />
          </mxGeometry>
        </mxCell>
        <mxCell id="87vMEDEc18548d9_qdaI-72" value="" style="endArrow=classic;html=1;rounded=0;entryX=0;entryY=0.451;entryDx=0;entryDy=0;entryPerimeter=0;" parent="1" target="87vMEDEc18548d9_qdaI-48" edge="1">
          <mxGeometry width="50" height="50" relative="1" as="geometry">
            <mxPoint x="960" y="340" as="sourcePoint" />
            <mxPoint x="1060" y="349.67" as="targetPoint" />
          </mxGeometry>
        </mxCell>
        <mxCell id="87vMEDEc18548d9_qdaI-73" value="" style="endArrow=classic;html=1;rounded=0;" parent="1" edge="1">
          <mxGeometry width="50" height="50" relative="1" as="geometry">
            <mxPoint x="860" y="579.6700000000001" as="sourcePoint" />
            <mxPoint x="900" y="580" as="targetPoint" />
          </mxGeometry>
        </mxCell>
        <mxCell id="87vMEDEc18548d9_qdaI-74" value="" style="endArrow=classic;html=1;rounded=0;" parent="1" edge="1">
          <mxGeometry width="50" height="50" relative="1" as="geometry">
            <mxPoint x="970" y="579.6600000000001" as="sourcePoint" />
            <mxPoint x="1000" y="579.99" as="targetPoint" />
          </mxGeometry>
        </mxCell>
        <mxCell id="87vMEDEc18548d9_qdaI-79" value="result" style="strokeWidth=2;html=1;shape=mxgraph.flowchart.direct_data;whiteSpace=wrap;rotation=0;fontSize=10;" parent="1" vertex="1">
          <mxGeometry x="1475" y="356" width="70" height="30" as="geometry" />
        </mxCell>
        <mxCell id="87vMEDEc18548d9_qdaI-80" value="" style="endArrow=classic;html=1;rounded=0;entryX=0.485;entryY=1.065;entryDx=0;entryDy=0;entryPerimeter=0;edgeStyle=orthogonalEdgeStyle;" parent="1" edge="1" target="RT8Ly2r0Yz2L8rbNHFNs-1">
          <mxGeometry width="50" height="50" relative="1" as="geometry">
            <mxPoint x="1545" y="370.5200000000001" as="sourcePoint" />
            <mxPoint x="1590" y="371" as="targetPoint" />
            <Array as="points">
              <mxPoint x="1560" y="371" />
              <mxPoint x="1560" y="760" />
              <mxPoint x="354" y="760" />
            </Array>
          </mxGeometry>
        </mxCell>
        <mxCell id="87vMEDEc18548d9_qdaI-84" value="" style="endArrow=classic;html=1;rounded=0;edgeStyle=orthogonalEdgeStyle;entryX=0;entryY=0.5;entryDx=0;entryDy=0;entryPerimeter=0;exitX=0.987;exitY=0.571;exitDx=0;exitDy=0;exitPerimeter=0;" parent="1" source="RXV--8zWElb7cY1QM_az-30" target="87vMEDEc18548d9_qdaI-79" edge="1">
          <mxGeometry width="50" height="50" relative="1" as="geometry">
            <mxPoint x="1100" y="180" as="sourcePoint" />
            <mxPoint x="1210" y="350" as="targetPoint" />
            <Array as="points">
              <mxPoint x="1460" y="180" />
              <mxPoint x="1460" y="371" />
            </Array>
          </mxGeometry>
        </mxCell>
        <mxCell id="87vMEDEc18548d9_qdaI-86" value="" style="endArrow=classic;html=1;rounded=0;entryX=0;entryY=0.5;entryDx=0;entryDy=0;entryPerimeter=0;exitX=1;exitY=0.556;exitDx=0;exitDy=0;exitPerimeter=0;edgeStyle=orthogonalEdgeStyle;" parent="1" source="RXV--8zWElb7cY1QM_az-25" target="87vMEDEc18548d9_qdaI-79" edge="1">
          <mxGeometry width="50" height="50" relative="1" as="geometry">
            <mxPoint x="1160" y="350" as="sourcePoint" />
            <mxPoint x="1210" y="349.84000000000003" as="targetPoint" />
            <Array as="points">
              <mxPoint x="1460" y="360" />
              <mxPoint x="1460" y="371" />
            </Array>
          </mxGeometry>
        </mxCell>
        <mxCell id="V9wkc1grLBFZfjwfMomi-3" value="Rainy days" style="ellipse;shape=umlControl;whiteSpace=wrap;html=1;" parent="1" vertex="1">
          <mxGeometry x="770" y="140" width="70" height="80" as="geometry" />
        </mxCell>
        <mxCell id="V9wkc1grLBFZfjwfMomi-5" value="duration of rainy day" style="strokeWidth=2;html=1;shape=mxgraph.flowchart.direct_data;whiteSpace=wrap;rotation=0;fontSize=10;" parent="1" vertex="1">
          <mxGeometry x="890" y="165" width="70" height="30" as="geometry" />
        </mxCell>
        <mxCell id="V9wkc1grLBFZfjwfMomi-6" value="" style="endArrow=classic;html=1;rounded=0;entryX=0;entryY=0.5;entryDx=0;entryDy=0;entryPerimeter=0;exitX=1.029;exitY=0.502;exitDx=0;exitDy=0;exitPerimeter=0;" parent="1" edge="1" source="V9wkc1grLBFZfjwfMomi-3">
          <mxGeometry width="50" height="50" relative="1" as="geometry">
            <mxPoint x="860" y="180" as="sourcePoint" />
            <mxPoint x="890" y="179.67000000000007" as="targetPoint" />
          </mxGeometry>
        </mxCell>
        <mxCell id="V9wkc1grLBFZfjwfMomi-7" value="" style="endArrow=classic;html=1;rounded=0;" parent="1" edge="1">
          <mxGeometry width="50" height="50" relative="1" as="geometry">
            <mxPoint x="960" y="179.67000000000007" as="sourcePoint" />
            <mxPoint x="1000" y="180" as="targetPoint" />
          </mxGeometry>
        </mxCell>
        <mxCell id="V9wkc1grLBFZfjwfMomi-8" value="" style="endArrow=classic;html=1;rounded=0;" parent="1" edge="1">
          <mxGeometry width="50" height="50" relative="1" as="geometry">
            <mxPoint x="620" y="330" as="sourcePoint" />
            <mxPoint x="660" y="300" as="targetPoint" />
          </mxGeometry>
        </mxCell>
        <mxCell id="V9wkc1grLBFZfjwfMomi-9" value="duration and date" style="strokeWidth=2;html=1;shape=mxgraph.flowchart.direct_data;whiteSpace=wrap;rotation=-35;fontSize=10;" parent="1" vertex="1">
          <mxGeometry x="660" y="260" width="70" height="30" as="geometry" />
        </mxCell>
        <mxCell id="V9wkc1grLBFZfjwfMomi-10" value="" style="endArrow=classic;html=1;rounded=0;" parent="1" edge="1">
          <mxGeometry width="50" height="50" relative="1" as="geometry">
            <mxPoint x="730" y="250" as="sourcePoint" />
            <mxPoint x="770" y="220" as="targetPoint" />
          </mxGeometry>
        </mxCell>
        <mxCell id="V9wkc1grLBFZfjwfMomi-12" value="Control Object" style="ellipse;shape=umlControl;whiteSpace=wrap;html=1;" parent="1" vertex="1">
          <mxGeometry x="770" y="250" width="70" height="80" as="geometry" />
        </mxCell>
        <mxCell id="V9wkc1grLBFZfjwfMomi-13" value="Control Object" style="ellipse;shape=umlControl;whiteSpace=wrap;html=1;" parent="1" vertex="1">
          <mxGeometry x="760" y="260" width="70" height="80" as="geometry" />
        </mxCell>
        <mxCell id="V9wkc1grLBFZfjwfMomi-14" value="Year 16/17" style="ellipse;shape=umlControl;whiteSpace=wrap;html=1;" parent="1" vertex="1">
          <mxGeometry x="750" y="270" width="70" height="80" as="geometry" />
        </mxCell>
        <mxCell id="V9wkc1grLBFZfjwfMomi-15" value="" style="endArrow=classic;html=1;rounded=0;" parent="1" edge="1">
          <mxGeometry width="50" height="50" relative="1" as="geometry">
            <mxPoint x="620" y="350" as="sourcePoint" />
            <mxPoint x="650" y="340" as="targetPoint" />
          </mxGeometry>
        </mxCell>
        <mxCell id="V9wkc1grLBFZfjwfMomi-16" value="date and start code" style="strokeWidth=2;html=1;shape=mxgraph.flowchart.direct_data;whiteSpace=wrap;rotation=-15;fontSize=10;" parent="1" vertex="1">
          <mxGeometry x="650" y="320" width="70" height="30" as="geometry" />
        </mxCell>
        <mxCell id="V9wkc1grLBFZfjwfMomi-17" value="" style="endArrow=classic;html=1;rounded=0;entryX=0.005;entryY=0.638;entryDx=0;entryDy=0;entryPerimeter=0;" parent="1" edge="1">
          <mxGeometry width="50" height="50" relative="1" as="geometry">
            <mxPoint x="720" y="323" as="sourcePoint" />
            <mxPoint x="750.3500000000001" y="314.0400000000001" as="targetPoint" />
          </mxGeometry>
        </mxCell>
        <mxCell id="V9wkc1grLBFZfjwfMomi-18" value="Control Object" style="ellipse;shape=umlControl;whiteSpace=wrap;html=1;" parent="1" vertex="1">
          <mxGeometry x="1020" y="520" width="70" height="80" as="geometry" />
        </mxCell>
        <mxCell id="V9wkc1grLBFZfjwfMomi-19" value="Control Object" style="ellipse;shape=umlControl;whiteSpace=wrap;html=1;" parent="1" vertex="1">
          <mxGeometry x="1010" y="530" width="70" height="80" as="geometry" />
        </mxCell>
        <mxCell id="V9wkc1grLBFZfjwfMomi-20" value="&lt;div&gt;Harversine&lt;/div&gt;&lt;div&gt;Calculator&lt;br&gt;&lt;/div&gt;" style="ellipse;shape=umlControl;whiteSpace=wrap;html=1;" parent="1" vertex="1">
          <mxGeometry x="1000" y="540" width="70" height="80" as="geometry" />
        </mxCell>
        <mxCell id="V9wkc1grLBFZfjwfMomi-21" value="&lt;div style=&quot;font-size: 10px;&quot;&gt;montreal codes&lt;/div&gt;" style="strokeWidth=2;html=1;shape=mxgraph.flowchart.direct_data;whiteSpace=wrap;rotation=30;fontSize=10;fontStyle=0" parent="1" vertex="1">
          <mxGeometry x="880" y="500" width="70" height="30" as="geometry" />
        </mxCell>
        <mxCell id="V9wkc1grLBFZfjwfMomi-22" value="" style="endArrow=classic;html=1;rounded=0;entryX=0;entryY=0.5;entryDx=0;entryDy=0;entryPerimeter=0;" parent="1" target="V9wkc1grLBFZfjwfMomi-21" edge="1">
          <mxGeometry width="50" height="50" relative="1" as="geometry">
            <mxPoint x="810" y="455.0000000000001" as="sourcePoint" />
            <mxPoint x="850" y="475.0000000000001" as="targetPoint" />
          </mxGeometry>
        </mxCell>
        <mxCell id="V9wkc1grLBFZfjwfMomi-23" value="" style="endArrow=classic;html=1;rounded=0;exitX=1;exitY=0.5;exitDx=0;exitDy=0;exitPerimeter=0;" parent="1" source="V9wkc1grLBFZfjwfMomi-21" target="V9wkc1grLBFZfjwfMomi-20" edge="1">
          <mxGeometry width="50" height="50" relative="1" as="geometry">
            <mxPoint x="950" y="540" as="sourcePoint" />
            <mxPoint x="950" y="514.84" as="targetPoint" />
          </mxGeometry>
        </mxCell>
        <mxCell id="V9wkc1grLBFZfjwfMomi-26" value="Entity Object" style="ellipse;shape=umlEntity;whiteSpace=wrap;html=1;" parent="1" vertex="1">
          <mxGeometry x="999.5" y="650" width="80" height="80" as="geometry" />
        </mxCell>
        <mxCell id="V9wkc1grLBFZfjwfMomi-25" value="Entity Object" style="ellipse;shape=umlEntity;whiteSpace=wrap;html=1;" parent="1" vertex="1">
          <mxGeometry x="995.5" y="657" width="80" height="80" as="geometry" />
        </mxCell>
        <mxCell id="V9wkc1grLBFZfjwfMomi-24" value="Distance" style="ellipse;shape=umlEntity;whiteSpace=wrap;html=1;" parent="1" vertex="1">
          <mxGeometry x="990.5" y="663" width="80" height="80" as="geometry" />
        </mxCell>
        <mxCell id="V9wkc1grLBFZfjwfMomi-27" value="" style="endArrow=classic;html=1;rounded=0;entryX=0.44;entryY=-0.017;entryDx=0;entryDy=0;entryPerimeter=0;" parent="1" target="V9wkc1grLBFZfjwfMomi-26" edge="1">
          <mxGeometry width="50" height="50" relative="1" as="geometry">
            <mxPoint x="1035" y="620.0000000000001" as="sourcePoint" />
            <mxPoint x="1035" y="640" as="targetPoint" />
          </mxGeometry>
        </mxCell>
        <mxCell id="V9wkc1grLBFZfjwfMomi-30" value="Days" style="ellipse;shape=umlEntity;whiteSpace=wrap;html=1;" parent="1" vertex="1">
          <mxGeometry x="770" y="23" width="80" height="80" as="geometry" />
        </mxCell>
        <mxCell id="V9wkc1grLBFZfjwfMomi-31" value="" style="endArrow=classic;html=1;rounded=0;entryX=0.5;entryY=1;entryDx=0;entryDy=0;" parent="1" target="V9wkc1grLBFZfjwfMomi-30" edge="1">
          <mxGeometry width="50" height="50" relative="1" as="geometry">
            <mxPoint x="810" y="130" as="sourcePoint" />
            <mxPoint x="780" y="190" as="targetPoint" />
          </mxGeometry>
        </mxCell>
        <mxCell id="V9wkc1grLBFZfjwfMomi-32" value="distance" style="strokeWidth=2;html=1;shape=mxgraph.flowchart.direct_data;whiteSpace=wrap;rotation=0;fontSize=10;fontStyle=0" parent="1" vertex="1">
          <mxGeometry x="1130" y="565" width="70" height="30" as="geometry" />
        </mxCell>
        <mxCell id="V9wkc1grLBFZfjwfMomi-33" value="" style="endArrow=classic;html=1;rounded=0;" parent="1" edge="1">
          <mxGeometry width="50" height="50" relative="1" as="geometry">
            <mxPoint x="1090" y="579.6700000000001" as="sourcePoint" />
            <mxPoint x="1130" y="580" as="targetPoint" />
          </mxGeometry>
        </mxCell>
        <mxCell id="V9wkc1grLBFZfjwfMomi-34" value="" style="endArrow=classic;html=1;rounded=0;" parent="1" edge="1">
          <mxGeometry width="50" height="50" relative="1" as="geometry">
            <mxPoint x="1200" y="579.6600000000001" as="sourcePoint" />
            <mxPoint x="1230" y="579.99" as="targetPoint" />
          </mxGeometry>
        </mxCell>
        <mxCell id="V9wkc1grLBFZfjwfMomi-36" value="station code" style="strokeWidth=2;html=1;shape=mxgraph.flowchart.direct_data;whiteSpace=wrap;rotation=0;fontSize=10;fontStyle=0" parent="1" vertex="1">
          <mxGeometry x="970" y="440" width="70" height="30" as="geometry" />
        </mxCell>
        <mxCell id="V9wkc1grLBFZfjwfMomi-37" value="" style="endArrow=classic;html=1;rounded=0;edgeStyle=orthogonalEdgeStyle;exitX=1.02;exitY=0.561;exitDx=0;exitDy=0;exitPerimeter=0;" parent="1" source="RXV--8zWElb7cY1QM_az-19" edge="1">
          <mxGeometry width="50" height="50" relative="1" as="geometry">
            <mxPoint x="595" y="560" as="sourcePoint" />
            <mxPoint x="970" y="455" as="targetPoint" />
            <Array as="points">
              <mxPoint x="840" y="495" />
              <mxPoint x="840" y="455" />
            </Array>
          </mxGeometry>
        </mxCell>
        <mxCell id="V9wkc1grLBFZfjwfMomi-38" value="" style="endArrow=classic;html=1;rounded=0;entryX=0.44;entryY=1.06;entryDx=0;entryDy=0;entryPerimeter=0;exitX=1;exitY=0.5;exitDx=0;exitDy=0;exitPerimeter=0;edgeStyle=orthogonalEdgeStyle;" parent="1" source="V9wkc1grLBFZfjwfMomi-36" target="87vMEDEc18548d9_qdaI-48" edge="1">
          <mxGeometry width="50" height="50" relative="1" as="geometry">
            <mxPoint x="1040" y="460" as="sourcePoint" />
            <mxPoint x="930" y="430" as="targetPoint" />
          </mxGeometry>
        </mxCell>
        <mxCell id="RXV--8zWElb7cY1QM_az-4" value="Counts" style="ellipse;shape=umlEntity;whiteSpace=wrap;html=1;" parent="1" vertex="1">
          <mxGeometry x="1103" y="234" width="80" height="80" as="geometry" />
        </mxCell>
        <mxCell id="RXV--8zWElb7cY1QM_az-5" value="" style="endArrow=classic;html=1;rounded=0;entryX=0.123;entryY=1.015;entryDx=0;entryDy=0;entryPerimeter=0;" parent="1" edge="1">
          <mxGeometry width="50" height="50" relative="1" as="geometry">
            <mxPoint x="1074.9520212303632" y="322.30587624084" as="sourcePoint" />
            <mxPoint x="1100.8400000000001" y="304.20000000000005" as="targetPoint" />
          </mxGeometry>
        </mxCell>
        <mxCell id="RXV--8zWElb7cY1QM_az-6" value="Entity Object" style="ellipse;shape=umlEntity;whiteSpace=wrap;html=1;" parent="1" vertex="1">
          <mxGeometry x="1010" y="10" width="80" height="80" as="geometry" />
        </mxCell>
        <mxCell id="RXV--8zWElb7cY1QM_az-7" value="Entity Object" style="ellipse;shape=umlEntity;whiteSpace=wrap;html=1;" parent="1" vertex="1">
          <mxGeometry x="1006" y="17" width="80" height="80" as="geometry" />
        </mxCell>
        <mxCell id="RXV--8zWElb7cY1QM_az-8" value="&lt;div&gt;Duration&lt;/div&gt;&lt;div&gt;mean&lt;br&gt;&lt;/div&gt;" style="ellipse;shape=umlEntity;whiteSpace=wrap;html=1;" parent="1" vertex="1">
          <mxGeometry x="1001" y="23" width="80" height="80" as="geometry" />
        </mxCell>
        <mxCell id="RXV--8zWElb7cY1QM_az-10" value="" style="endArrow=classic;html=1;rounded=0;entryX=0.5;entryY=1;entryDx=0;entryDy=0;exitX=0.31;exitY=0.175;exitDx=0;exitDy=0;exitPerimeter=0;" parent="1" source="87vMEDEc18548d9_qdaI-9" target="RXV--8zWElb7cY1QM_az-8" edge="1">
          <mxGeometry width="50" height="50" relative="1" as="geometry">
            <mxPoint x="900" y="260" as="sourcePoint" />
            <mxPoint x="950" y="210" as="targetPoint" />
          </mxGeometry>
        </mxCell>
        <mxCell id="RXV--8zWElb7cY1QM_az-11" value="Entity Object" style="ellipse;shape=umlEntity;whiteSpace=wrap;html=1;" parent="1" vertex="1">
          <mxGeometry x="1230" y="631" width="80" height="80" as="geometry" />
        </mxCell>
        <mxCell id="RXV--8zWElb7cY1QM_az-12" value="Entity Object" style="ellipse;shape=umlEntity;whiteSpace=wrap;html=1;" parent="1" vertex="1">
          <mxGeometry x="1226" y="638" width="80" height="80" as="geometry" />
        </mxCell>
        <mxCell id="RXV--8zWElb7cY1QM_az-13" value="&lt;div&gt;Distance&lt;/div&gt;&lt;div&gt;mean&lt;br&gt;&lt;/div&gt;" style="ellipse;shape=umlEntity;whiteSpace=wrap;html=1;" parent="1" vertex="1">
          <mxGeometry x="1221" y="644" width="80" height="80" as="geometry" />
        </mxCell>
        <mxCell id="RXV--8zWElb7cY1QM_az-15" value="" style="endArrow=classic;html=1;rounded=0;exitX=0.563;exitY=1.005;exitDx=0;exitDy=0;exitPerimeter=0;" parent="1" source="87vMEDEc18548d9_qdaI-34" edge="1">
          <mxGeometry width="50" height="50" relative="1" as="geometry">
            <mxPoint x="1150" y="540" as="sourcePoint" />
            <mxPoint x="1270" y="630" as="targetPoint" />
          </mxGeometry>
        </mxCell>
        <mxCell id="RXV--8zWElb7cY1QM_az-16" value="Control Object" style="ellipse;shape=umlControl;whiteSpace=wrap;html=1;" parent="1" vertex="1">
          <mxGeometry x="560" y="290" width="70" height="80" as="geometry" />
        </mxCell>
        <mxCell id="RXV--8zWElb7cY1QM_az-17" value="Control Object" style="ellipse;shape=umlControl;whiteSpace=wrap;html=1;" parent="1" vertex="1">
          <mxGeometry x="550" y="300" width="70" height="80" as="geometry" />
        </mxCell>
        <mxCell id="RXV--8zWElb7cY1QM_az-18" value="Trips" style="ellipse;shape=umlControl;whiteSpace=wrap;html=1;" parent="1" vertex="1">
          <mxGeometry x="540" y="310" width="70" height="80" as="geometry" />
        </mxCell>
        <mxCell id="RXV--8zWElb7cY1QM_az-19" value="Control Object" style="ellipse;shape=umlControl;whiteSpace=wrap;html=1;" parent="1" vertex="1">
          <mxGeometry x="560" y="450" width="70" height="80" as="geometry" />
        </mxCell>
        <mxCell id="RXV--8zWElb7cY1QM_az-20" value="Control Object" style="ellipse;shape=umlControl;whiteSpace=wrap;html=1;" parent="1" vertex="1">
          <mxGeometry x="550" y="460" width="70" height="80" as="geometry" />
        </mxCell>
        <mxCell id="RXV--8zWElb7cY1QM_az-21" value="Stations" style="ellipse;shape=umlControl;whiteSpace=wrap;html=1;" parent="1" vertex="1">
          <mxGeometry x="540" y="470" width="70" height="80" as="geometry" />
        </mxCell>
        <mxCell id="RXV--8zWElb7cY1QM_az-22" value="Control Object" style="ellipse;shape=umlControl;whiteSpace=wrap;html=1;" parent="1" vertex="1">
          <mxGeometry x="560" y="120" width="70" height="80" as="geometry" />
        </mxCell>
        <mxCell id="RXV--8zWElb7cY1QM_az-23" value="Control Object" style="ellipse;shape=umlControl;whiteSpace=wrap;html=1;" parent="1" vertex="1">
          <mxGeometry x="550" y="130" width="70" height="80" as="geometry" />
        </mxCell>
        <mxCell id="RXV--8zWElb7cY1QM_az-24" value="Weathers" style="ellipse;shape=umlControl;whiteSpace=wrap;html=1;" parent="1" vertex="1">
          <mxGeometry x="540" y="140" width="70" height="80" as="geometry" />
        </mxCell>
        <mxCell id="RXV--8zWElb7cY1QM_az-25" value="Result joiner" style="ellipse;shape=umlControl;whiteSpace=wrap;html=1;" parent="1" vertex="1">
          <mxGeometry x="1210" y="315" width="70" height="80" as="geometry" />
        </mxCell>
        <mxCell id="RXV--8zWElb7cY1QM_az-26" value="" style="endArrow=classic;html=1;rounded=0;exitX=1.024;exitY=0.754;exitDx=0;exitDy=0;exitPerimeter=0;" parent="1" edge="1">
          <mxGeometry width="50" height="50" relative="1" as="geometry">
            <mxPoint x="1101.6799999999998" y="360.31999999999994" as="sourcePoint" />
            <mxPoint x="1120" y="360" as="targetPoint" />
          </mxGeometry>
        </mxCell>
        <mxCell id="RXV--8zWElb7cY1QM_az-27" value="partial result" style="strokeWidth=2;html=1;shape=mxgraph.flowchart.direct_data;whiteSpace=wrap;rotation=0;fontSize=10;fontStyle=0" parent="1" vertex="1">
          <mxGeometry x="1121" y="345" width="70" height="30" as="geometry" />
        </mxCell>
        <mxCell id="RXV--8zWElb7cY1QM_az-28" value="" style="endArrow=classic;html=1;rounded=0;entryX=-0.007;entryY=0.568;entryDx=0;entryDy=0;entryPerimeter=0;exitX=1;exitY=0.5;exitDx=0;exitDy=0;exitPerimeter=0;" parent="1" source="RXV--8zWElb7cY1QM_az-27" target="RXV--8zWElb7cY1QM_az-25" edge="1">
          <mxGeometry width="50" height="50" relative="1" as="geometry">
            <mxPoint x="1060" y="440" as="sourcePoint" />
            <mxPoint x="1110" y="390" as="targetPoint" />
          </mxGeometry>
        </mxCell>
        <mxCell id="RXV--8zWElb7cY1QM_az-30" value="Result joiner" style="ellipse;shape=umlControl;whiteSpace=wrap;html=1;" parent="1" vertex="1">
          <mxGeometry x="1219" y="134" width="70" height="80" as="geometry" />
        </mxCell>
        <mxCell id="RXV--8zWElb7cY1QM_az-31" value="" style="endArrow=classic;html=1;rounded=0;" parent="1" edge="1">
          <mxGeometry width="50" height="50" relative="1" as="geometry">
            <mxPoint x="1090" y="179" as="sourcePoint" />
            <mxPoint x="1129" y="179" as="targetPoint" />
          </mxGeometry>
        </mxCell>
        <mxCell id="RXV--8zWElb7cY1QM_az-32" value="partial result" style="strokeWidth=2;html=1;shape=mxgraph.flowchart.direct_data;whiteSpace=wrap;rotation=0;fontSize=10;fontStyle=0" parent="1" vertex="1">
          <mxGeometry x="1130" y="164" width="70" height="30" as="geometry" />
        </mxCell>
        <mxCell id="RXV--8zWElb7cY1QM_az-33" value="" style="endArrow=classic;html=1;rounded=0;entryX=-0.007;entryY=0.568;entryDx=0;entryDy=0;entryPerimeter=0;exitX=1;exitY=0.5;exitDx=0;exitDy=0;exitPerimeter=0;" parent="1" source="RXV--8zWElb7cY1QM_az-32" target="RXV--8zWElb7cY1QM_az-30" edge="1">
          <mxGeometry width="50" height="50" relative="1" as="geometry">
            <mxPoint x="1069" y="259" as="sourcePoint" />
            <mxPoint x="1119" y="209" as="targetPoint" />
          </mxGeometry>
        </mxCell>
        <mxCell id="RXV--8zWElb7cY1QM_az-34" value="Result joiner" style="ellipse;shape=umlControl;whiteSpace=wrap;html=1;" parent="1" vertex="1">
          <mxGeometry x="1435" y="535" width="70" height="80" as="geometry" />
        </mxCell>
        <mxCell id="RXV--8zWElb7cY1QM_az-35" value="" style="endArrow=classic;html=1;rounded=0;" parent="1" edge="1">
          <mxGeometry width="50" height="50" relative="1" as="geometry">
            <mxPoint x="1306" y="580" as="sourcePoint" />
            <mxPoint x="1345" y="580" as="targetPoint" />
          </mxGeometry>
        </mxCell>
        <mxCell id="RXV--8zWElb7cY1QM_az-36" value="partial result" style="strokeWidth=2;html=1;shape=mxgraph.flowchart.direct_data;whiteSpace=wrap;rotation=0;fontSize=10;fontStyle=0" parent="1" vertex="1">
          <mxGeometry x="1346" y="565" width="70" height="30" as="geometry" />
        </mxCell>
        <mxCell id="RXV--8zWElb7cY1QM_az-37" value="" style="endArrow=classic;html=1;rounded=0;entryX=-0.007;entryY=0.568;entryDx=0;entryDy=0;entryPerimeter=0;exitX=1;exitY=0.5;exitDx=0;exitDy=0;exitPerimeter=0;" parent="1" source="RXV--8zWElb7cY1QM_az-36" target="RXV--8zWElb7cY1QM_az-34" edge="1">
          <mxGeometry width="50" height="50" relative="1" as="geometry">
            <mxPoint x="1285" y="660" as="sourcePoint" />
            <mxPoint x="1335" y="610" as="targetPoint" />
          </mxGeometry>
        </mxCell>
        <mxCell id="RT8Ly2r0Yz2L8rbNHFNs-1" value="&lt;div&gt;Messagge&lt;/div&gt;&lt;div&gt;Processor&lt;br&gt;&lt;/div&gt;" style="ellipse;shape=umlControl;whiteSpace=wrap;html=1;" vertex="1" parent="1">
          <mxGeometry x="320" y="306" width="70" height="80" as="geometry" />
        </mxCell>
        <mxCell id="RT8Ly2r0Yz2L8rbNHFNs-4" value="" style="endArrow=classic;startArrow=classic;html=1;rounded=0;entryX=-0.011;entryY=0.545;entryDx=0;entryDy=0;entryPerimeter=0;exitX=1.024;exitY=0.497;exitDx=0;exitDy=0;exitPerimeter=0;" edge="1" parent="1" source="87vMEDEc18548d9_qdaI-3" target="RT8Ly2r0Yz2L8rbNHFNs-1">
          <mxGeometry width="50" height="50" relative="1" as="geometry">
            <mxPoint x="260" y="375" as="sourcePoint" />
            <mxPoint x="310" y="325" as="targetPoint" />
          </mxGeometry>
        </mxCell>
      </root>
    </mxGraphModel>
  </diagram>
</mxfile>
